<?xml version="1.0" encoding="utf-8"?>
<!-- Generator: Adobe Illustrator 27.7.0, SVG Export Plug-In . SVG Version: 6.00 Build 0)  -->
<svg version="1.1" id="Calque_1" xmlns="http://www.w3.org/2000/svg" xmlns:xlink="http://www.w3.org/1999/xlink" x="0px" y="0px"
	 viewBox="0 0 600 183" style="enable-background:new 0 0 600 183;" xml:space="preserve">
<style type="text/css">
	.st0{fill:#ffffff;}
</style>
<g>
	<path class="st0" d="M5.77,4.45h103.4c17.23,0,29.75,3.9,37.55,11.69c7.79,7.8,11.69,20.31,11.69,37.55v24.62
		c0,17.23-3.9,29.75-11.69,37.55c-7.8,7.8-20.31,11.69-37.55,11.69H50.09v49.24H5.77V4.45z M114.1,53.69
		c0-9.85-4.92-14.77-14.77-14.77H50.09v54.16h49.24c9.85,0,14.77-4.92,14.77-14.77V53.69z"/>
	<path class="st0" d="M261.82,176.79h-88.63v-34.47h22.16V38.92h-22.16V4.45h88.63v34.47h-22.16v103.4h22.16V176.79z"/>
	<path class="st0" d="M431.7,173.1c-38.41,4.1-73.7,6.16-105.87,6.16c-16.09,0-27.91-3.77-35.45-11.33
		c-7.55-7.55-11.33-19.37-11.33-35.45V53.69c0-17.23,3.9-29.75,11.69-37.55c7.79-7.79,20.31-11.69,37.55-11.69h88.63v34.47h-78.78
		c-9.85,0-14.77,4.92-14.77,14.77v78.78c0,3.78,1.11,6.77,3.32,8.99c2.22,2.22,5.21,3.32,8.99,3.32c18.87,0,36.11-0.41,51.7-1.23
		v-35.7h-32.01V78.31h76.32V173.1z"/>
	<path class="st0" d="M451.15,141.09c44.97,2.46,75.42,3.69,91.34,3.69c3.77,0,6.77-1.11,8.99-3.32s3.32-5.21,3.32-8.99v-22.16
		h-56.63c-17.23,0-29.75-3.9-37.54-11.69c-7.8-7.79-11.7-20.31-11.7-37.55v-7.39c0-17.23,3.9-29.75,11.7-37.55
		c7.79-7.79,20.31-11.69,37.54-11.69h86.42v34.47h-76.57c-9.85,0-14.77,4.92-14.77,14.77v4.92c0,9.85,4.92,14.77,14.77,14.77h44.32
		c16.08,0,27.9,3.78,35.45,11.33c7.55,7.55,11.33,19.37,11.33,35.45v12.31c0,16.09-3.78,27.91-11.33,35.45
		c-7.55,7.55-19.37,11.33-35.45,11.33c-8.37,0-17.23-0.17-26.59-0.49l-22.65-0.99c-16.74-0.82-34.06-1.97-51.95-3.45V141.09z"/>
</g>
</svg>
